<svg width="32" height="32" viewBox="0 0 32 32" fill="none" xmlns="http://www.w3.org/2000/svg">
  <!-- Consciousness gradient background -->
  <defs>
    <linearGradient id="consciousnessGrad" x1="0%" y1="0%" x2="135%" y2="135%">
      <stop offset="0%" style="stop-color:#6366F1;stop-opacity:1" />
      <stop offset="50%" style="stop-color:#A78BFA;stop-opacity:1" />
      <stop offset="100%" style="stop-color:#818CF8;stop-opacity:1" />
    </linearGradient>
  </defs>
  
  <!-- Gradient rounded rectangle background -->
  <rect width="32" height="32" rx="6" fill="url(#consciousnessGrad)"/>
  
  <!-- White Vergil star logo - actual logo, larger scale -->
  <g transform="translate(16, 16) scale(0.13)">
    <path d="M90.6334 127.994L155.373 129.09C157.714 129.127 158.073 125.692 155.781 125.242L92.9507 112.889C90.6104 112.426 89.4693 109.714 90.7728 107.68L121.229 59.9938C122.492 58.0198 119.856 55.9021 118.244 57.5925L79.0857 98.7535C77.4425 100.476 74.613 100.007 73.6122 97.8481L28.848 1.70546C27.8238 -0.49852 24.5388 0.846154 25.3001 3.15855L58.8076 104.607C59.5434 106.824 57.9047 109.129 55.5885 109.124L2.22529 108.98C-0.0840036 108.975 -0.437112 112.346 1.8179 112.822L52.8773 123.622C55.2279 124.121 56.3162 126.87 54.9657 128.885L10.6217 195.02C9.28787 197.008 12.0011 199.19 13.6139 197.422L67.1434 138.571C68.7645 136.789 71.653 137.229 72.6717 139.418L117.233 235.143C118.257 237.347 121.542 236.002 120.781 233.689L87.3589 132.505C86.6182 130.266 88.293 127.95 90.6265 127.993L90.6334 127.994Z" 
          fill="white"
          transform="translate(-79, -118.5)"/>
  </g>
</svg>