<svg width="1200" height="630" viewBox="0 0 1200 630" fill="none" xmlns="http://www.w3.org/2000/svg">
  <!-- Dark background -->
  <rect width="1200" height="630" fill="#0F172A"/>
  
  <!-- Gradient overlay -->
  <rect width="1200" height="630" fill="url(#gradient)" opacity="0.1"/>
  
  <!-- Vergil Logo Mark -->
  <g transform="translate(600, 200)">
    <!-- Outer star points -->
    <path d="M0,-60 L14.7,-18.54 L57.06,-18.54 L18.54,14.16 L35.28,57.06 L0,24.3 L-35.28,57.06 L-18.54,14.16 L-57.06,-18.54 L-14.7,-18.54 Z" 
          fill="white" 
          opacity="0.9"/>
    
    <!-- Inner star for depth -->
    <path d="M0,-36 L8.82,-11.1 L34.26,-11.1 L11.1,8.52 L21.18,34.26 L0,14.58 L-21.18,34.26 L-11.1,8.52 L-34.26,-11.1 L-8.82,-11.1 Z" 
          fill="white" 
          opacity="0.3"/>
    
    <!-- Center dot -->
    <circle cx="0" cy="0" r="9" fill="white"/>
  </g>
  
  <!-- Text -->
  <text x="600" y="350" font-family="Inter, sans-serif" font-size="72" font-weight="700" text-anchor="middle" fill="white">
    Vergil Learn
  </text>
  
  <text x="600" y="420" font-family="Inter, sans-serif" font-size="32" font-weight="400" text-anchor="middle" fill="#9CA3AF">
    Transform Your Workforce with AI
  </text>
  
  <text x="600" y="470" font-family="Inter, sans-serif" font-size="24" font-weight="400" text-anchor="middle" fill="#6B7280">
    Personalized Learning Paths • Real-Time Analytics • Proven Results
  </text>
  
  <!-- Gradient definition -->
  <defs>
    <linearGradient id="gradient" x1="0%" y1="0%" x2="100%" y2="100%">
      <stop offset="0%" style="stop-color:#6366F1;stop-opacity:1" />
      <stop offset="50%" style="stop-color:#A78BFA;stop-opacity:1" />
      <stop offset="100%" style="stop-color:#818CF8;stop-opacity:1" />
    </linearGradient>
  </defs>
</svg>