<svg width="417" height="166" viewBox="0 0 417 166" fill="none" xmlns="http://www.w3.org/2000/svg">
<path d="M45.9853 125.587L0.44248 4.37071H16.2006L54.4705 110.176L93.0867 4.37071H108.498L62.9557 125.587H45.9853ZM146.338 127.665C138.142 127.665 130.869 125.761 124.519 121.951C118.285 118.141 113.379 112.831 109.8 106.02C106.221 99.0929 104.432 91.0695 104.432 81.9494C104.432 72.7138 106.163 64.6904 109.627 57.8792C113.206 51.068 118.17 45.7576 124.519 41.9479C130.984 38.1382 138.372 36.2334 146.684 36.2334C155.227 36.2334 162.443 38.1382 168.33 41.9479C174.333 45.7576 178.893 50.7794 182.01 57.0134C185.243 63.1319 186.859 69.8854 186.859 77.2739C186.859 78.4283 186.859 79.6405 186.859 80.9104C186.859 82.1803 186.801 83.6233 186.686 85.2396H115.341V73.9837H172.659C172.313 66.0181 169.658 59.7841 164.694 55.2817C159.845 50.7794 153.727 48.5282 146.338 48.5282C141.374 48.5282 136.756 49.6827 132.485 51.9916C128.329 54.185 124.981 57.4752 122.441 61.8621C119.901 66.1335 118.631 71.5017 118.631 77.9666V82.8152C118.631 89.9728 119.901 95.9759 122.441 100.825C125.096 105.673 128.502 109.31 132.658 111.734C136.929 114.158 141.489 115.371 146.338 115.371C152.457 115.371 157.479 114.043 161.404 111.388C165.444 108.617 168.33 104.923 170.062 100.305H184.435C183.049 105.5 180.625 110.176 177.162 114.332C173.698 118.488 169.369 121.778 164.174 124.202C159.095 126.511 153.149 127.665 146.338 127.665ZM201.294 125.587V38.3114H214.455L215.494 54.9354C217.456 51.0103 219.938 47.6624 222.94 44.8917C226.057 42.1211 229.751 39.9853 234.023 38.4846C238.41 36.9838 243.374 36.2334 248.915 36.2334V51.4721H243.547C239.853 51.4721 236.332 51.9916 232.984 53.0306C229.636 53.9541 226.634 55.5126 223.979 57.7061C221.439 59.8995 219.419 62.9011 217.918 66.7107C216.533 70.4049 215.84 75.0227 215.84 80.5641V125.587H201.294ZM303.136 165.762C297.48 165.762 292.169 165.012 287.205 163.511C282.356 162.126 277.97 160.048 274.044 157.277C270.119 154.506 266.887 151.101 264.347 147.06C261.807 143.02 260.076 138.459 259.152 133.38H273.525C274.795 137.19 276.757 140.595 279.413 143.597C282.183 146.598 285.589 148.907 289.629 150.523C293.67 152.255 298.115 153.121 302.963 153.121C308.62 153.121 313.642 151.909 318.029 149.484C322.531 147.176 326.052 143.597 328.592 138.748C331.247 134.015 332.575 128.012 332.575 120.739V108.271C330.728 111.503 328.303 114.562 325.302 117.449C322.3 120.219 318.606 122.47 314.219 124.202C309.948 125.934 304.984 126.8 299.327 126.8C291.361 126.8 284.146 124.895 277.681 121.085C271.216 117.16 266.079 111.792 262.269 104.981C258.459 98.0539 256.555 90.2037 256.555 81.4299C256.555 72.5407 258.459 64.7482 262.269 58.0524C266.079 51.2412 271.216 45.9307 277.681 42.1211C284.261 38.1959 291.534 36.2334 299.5 36.2334C304.58 36.2334 309.255 37.0415 313.526 38.6577C317.798 40.1585 321.55 42.2365 324.782 44.8917C328.015 47.5469 330.612 50.4908 332.575 53.7232L333.96 38.3114H347.121V120.566C347.121 127.723 346.024 134.073 343.831 139.614C341.637 145.271 338.578 150.004 334.653 153.814C330.843 157.739 326.225 160.683 320.799 162.645C315.489 164.723 309.601 165.762 303.136 165.762ZM301.578 114.158C307.581 114.158 312.834 112.773 317.336 110.002C321.954 107.232 325.533 103.422 328.073 98.5734C330.728 93.6093 332.055 87.8948 332.055 81.4299C332.055 74.8496 330.728 69.1351 328.073 64.2864C325.533 59.4377 321.954 55.6858 317.336 53.0306C312.834 50.2599 307.581 48.8746 301.578 48.8746C295.921 48.8746 290.784 50.2599 286.166 53.0306C281.548 55.6858 277.912 59.4377 275.257 64.2864C272.717 69.1351 271.447 74.8496 271.447 81.4299C271.447 87.8948 272.717 93.6093 275.257 98.5734C277.912 103.422 281.548 107.232 286.166 110.002C290.784 112.773 295.921 114.158 301.578 114.158ZM367.316 125.587V38.3114H381.862V125.587H367.316ZM374.589 19.7826C371.703 19.7826 369.279 18.859 367.316 17.0119C365.469 15.0493 364.546 12.625 364.546 9.73888C364.546 6.85277 365.469 4.54388 367.316 2.81221C369.279 0.965104 371.703 0.0415501 374.589 0.0415501C377.36 0.0415501 379.727 0.965104 381.689 2.81221C383.652 4.54388 384.633 6.85277 384.633 9.73888C384.633 12.625 383.652 15.0493 381.689 17.0119C379.727 18.859 377.36 19.7826 374.589 19.7826ZM402.337 125.587V0.907383H416.883V125.587H402.337Z" fill="white"/>
</svg>
