<svg width="620" height="238" viewBox="0 0 620 238" fill="none" xmlns="http://www.w3.org/2000/svg">
<path d="M235.985 172.587L190.442 51.3707H206.201L244.47 157.176L283.087 51.3707H298.498L252.956 172.587H235.985ZM336.338 174.665C328.142 174.665 320.869 172.761 314.519 168.951C308.285 165.141 303.379 159.831 299.8 153.02C296.221 146.093 294.432 138.07 294.432 128.949C294.432 119.714 296.163 111.69 299.627 104.879C303.206 98.068 308.17 92.7576 314.519 88.9479C320.984 85.1382 328.372 83.2334 336.684 83.2334C345.227 83.2334 352.443 85.1382 358.33 88.9479C364.333 92.7576 368.893 97.7794 372.01 104.013C375.243 110.132 376.859 116.885 376.859 124.274C376.859 125.428 376.859 126.641 376.859 127.91C376.859 129.18 376.801 130.623 376.686 132.24H305.341V120.984H362.659C362.313 113.018 359.658 106.784 354.694 102.282C349.845 97.7794 343.727 95.5282 336.338 95.5282C331.374 95.5282 326.756 96.6827 322.485 98.9916C318.329 101.185 314.981 104.475 312.441 108.862C309.901 113.134 308.631 118.502 308.631 124.967V129.815C308.631 136.973 309.901 142.976 312.441 147.825C315.096 152.673 318.502 156.31 322.658 158.734C326.929 161.158 331.489 162.371 336.338 162.371C342.457 162.371 347.479 161.043 351.404 158.388C355.444 155.617 358.33 151.923 360.062 147.305H374.435C373.049 152.5 370.625 157.176 367.162 161.332C363.698 165.488 359.369 168.778 354.174 171.202C349.095 173.511 343.149 174.665 336.338 174.665ZM391.294 172.587V85.3114H404.455L405.494 101.935C407.456 98.0103 409.938 94.6624 412.94 91.8917C416.057 89.1211 419.751 86.9853 424.023 85.4846C428.41 83.9838 433.374 83.2334 438.915 83.2334V98.4721H433.547C429.853 98.4721 426.332 98.9916 422.984 100.031C419.636 100.954 416.634 102.513 413.979 104.706C411.439 106.9 409.419 109.901 407.918 113.711C406.533 117.405 405.84 122.023 405.84 127.564V172.587H391.294ZM493.136 212.762C487.48 212.762 482.169 212.012 477.205 210.511C472.356 209.126 467.97 207.048 464.044 204.277C460.119 201.506 456.887 198.101 454.347 194.06C451.807 190.02 450.076 185.459 449.152 180.38H463.525C464.795 184.19 466.757 187.595 469.413 190.597C472.183 193.598 475.589 195.907 479.629 197.523C483.67 199.255 488.115 200.121 492.963 200.121C498.62 200.121 503.642 198.909 508.029 196.484C512.531 194.176 516.052 190.597 518.592 185.748C521.247 181.015 522.575 175.012 522.575 167.739V155.271C520.728 158.503 518.303 161.562 515.302 164.449C512.3 167.219 508.606 169.47 504.219 171.202C499.948 172.934 494.984 173.8 489.327 173.8C481.361 173.8 474.146 171.895 467.681 168.085C461.216 164.16 456.079 158.792 452.269 151.981C448.459 145.054 446.555 137.204 446.555 128.43C446.555 119.541 448.459 111.748 452.269 105.052C456.079 98.2412 461.216 92.9307 467.681 89.1211C474.261 85.1959 481.534 83.2334 489.5 83.2334C494.58 83.2334 499.255 84.0415 503.526 85.6577C507.798 87.1585 511.55 89.2365 514.782 91.8917C518.015 94.5469 520.612 97.4908 522.575 100.723L523.96 85.3114H537.121V167.566C537.121 174.723 536.024 181.073 533.831 186.614C531.637 192.271 528.578 197.004 524.653 200.814C520.843 204.739 516.225 207.683 510.799 209.645C505.489 211.723 499.601 212.762 493.136 212.762ZM491.578 161.158C497.581 161.158 502.834 159.773 507.336 157.002C511.954 154.232 515.533 150.422 518.073 145.573C520.728 140.609 522.055 134.895 522.055 128.43C522.055 121.85 520.728 116.135 518.073 111.286C515.533 106.438 511.954 102.686 507.336 100.031C502.834 97.2599 497.581 95.8746 491.578 95.8746C485.921 95.8746 480.784 97.2599 476.166 100.031C471.548 102.686 467.912 106.438 465.257 111.286C462.717 116.135 461.447 121.85 461.447 128.43C461.447 134.895 462.717 140.609 465.257 145.573C467.912 150.422 471.548 154.232 476.166 157.002C480.784 159.773 485.921 161.158 491.578 161.158ZM557.316 172.587V85.3114H571.862V172.587H557.316ZM564.589 66.7826C561.703 66.7826 559.279 65.859 557.316 64.0119C555.469 62.0493 554.546 59.625 554.546 56.7389C554.546 53.8528 555.469 51.5439 557.316 49.8122C559.279 47.9651 561.703 47.0416 564.589 47.0416C567.36 47.0416 569.727 47.9651 571.689 49.8122C573.652 51.5439 574.633 53.8528 574.633 56.7389C574.633 59.625 573.652 62.0493 571.689 64.0119C569.727 65.859 567.36 66.7826 564.589 66.7826ZM592.337 172.587V47.9074H606.883V172.587H592.337Z" fill="#1D1D1F"/>
<path d="M90.6334 128.994L155.373 130.09C157.714 130.127 158.073 126.692 155.781 126.242L92.9507 113.889C90.6104 113.426 89.4693 110.714 90.7728 108.68L121.229 60.9938C122.492 59.0198 119.856 56.9021 118.244 58.5925L79.0857 99.7535C77.4425 101.476 74.613 101.007 73.6122 98.8481L28.848 2.70546C27.8238 0.50148 24.5388 1.84615 25.3001 4.15855L58.8076 105.607C59.5434 107.824 57.9047 110.129 55.5885 110.124L2.22529 109.98C-0.0840036 109.975 -0.437112 113.346 1.8179 113.822L52.8773 124.622C55.2279 125.121 56.3162 127.87 54.9657 129.885L10.6217 196.02C9.28787 198.008 12.0011 200.19 13.6139 198.422L67.1434 139.571C68.7645 137.789 71.653 138.229 72.6717 140.418L117.233 236.143C118.257 238.347 121.542 237.002 120.781 234.689L87.3589 133.505C86.6182 131.266 88.293 128.95 90.6265 128.993L90.6334 128.994Z" fill="#1D1D1F"/>
</svg>